<mxfile host="app.diagrams.net" modified="2022-10-26T12:10:34.675Z" agent="5.0 (Windows NT 10.0; Win64; x64) AppleWebKit/537.36 (KHTML, like Gecko) Chrome/103.0.0.0 Safari/537.36" etag="FJXp7R3d95Hb5LRTeiLP" version="20.5.1" type="github">
  <diagram id="C5RBs43oDa-KdzZeNtuy" name="Page-1">
    <mxGraphModel dx="1209" dy="684" grid="1" gridSize="10" guides="1" tooltips="1" connect="1" arrows="1" fold="1" page="1" pageScale="1" pageWidth="827" pageHeight="1169" math="0" shadow="0">
      <root>
        <mxCell id="WIyWlLk6GJQsqaUBKTNV-0" />
        <mxCell id="WIyWlLk6GJQsqaUBKTNV-1" parent="WIyWlLk6GJQsqaUBKTNV-0" />
        <mxCell id="FiQDS2GlnpHeSwT_CPR_-35" style="edgeStyle=orthogonalEdgeStyle;rounded=0;orthogonalLoop=1;jettySize=auto;html=1;exitX=0.5;exitY=1;exitDx=0;exitDy=0;entryX=0.5;entryY=0;entryDx=0;entryDy=0;fontFamily=Times New Roman;fontSize=16;" edge="1" parent="WIyWlLk6GJQsqaUBKTNV-1" source="FiQDS2GlnpHeSwT_CPR_-23" target="FiQDS2GlnpHeSwT_CPR_-33">
          <mxGeometry relative="1" as="geometry" />
        </mxCell>
        <mxCell id="FiQDS2GlnpHeSwT_CPR_-39" style="edgeStyle=orthogonalEdgeStyle;rounded=0;orthogonalLoop=1;jettySize=auto;html=1;fontFamily=Times New Roman;fontSize=16;" edge="1" parent="WIyWlLk6GJQsqaUBKTNV-1" source="FiQDS2GlnpHeSwT_CPR_-23" target="FiQDS2GlnpHeSwT_CPR_-34">
          <mxGeometry relative="1" as="geometry" />
        </mxCell>
        <mxCell id="FiQDS2GlnpHeSwT_CPR_-40" style="edgeStyle=orthogonalEdgeStyle;rounded=0;orthogonalLoop=1;jettySize=auto;html=1;entryX=0.5;entryY=0;entryDx=0;entryDy=0;fontFamily=Times New Roman;fontSize=16;" edge="1" parent="WIyWlLk6GJQsqaUBKTNV-1" source="FiQDS2GlnpHeSwT_CPR_-23" target="FiQDS2GlnpHeSwT_CPR_-32">
          <mxGeometry relative="1" as="geometry" />
        </mxCell>
        <mxCell id="FiQDS2GlnpHeSwT_CPR_-23" value="登录注册界面" style="rounded=1;whiteSpace=wrap;html=1;fontFamily=Times New Roman;fontSize=32;" vertex="1" parent="WIyWlLk6GJQsqaUBKTNV-1">
          <mxGeometry x="280" y="80" width="240" height="80" as="geometry" />
        </mxCell>
        <mxCell id="FiQDS2GlnpHeSwT_CPR_-42" style="edgeStyle=orthogonalEdgeStyle;rounded=0;orthogonalLoop=1;jettySize=auto;html=1;fontFamily=Times New Roman;fontSize=16;" edge="1" parent="WIyWlLk6GJQsqaUBKTNV-1" source="FiQDS2GlnpHeSwT_CPR_-32" target="FiQDS2GlnpHeSwT_CPR_-41">
          <mxGeometry relative="1" as="geometry" />
        </mxCell>
        <mxCell id="FiQDS2GlnpHeSwT_CPR_-32" value="&lt;font style=&quot;font-size: 18px;&quot;&gt;载入&lt;/font&gt;" style="rounded=1;whiteSpace=wrap;html=1;fontFamily=Times New Roman;fontSize=16;" vertex="1" parent="WIyWlLk6GJQsqaUBKTNV-1">
          <mxGeometry x="225" y="220" width="70" height="40" as="geometry" />
        </mxCell>
        <mxCell id="FiQDS2GlnpHeSwT_CPR_-46" style="edgeStyle=orthogonalEdgeStyle;rounded=0;orthogonalLoop=1;jettySize=auto;html=1;exitX=0.5;exitY=1;exitDx=0;exitDy=0;fontFamily=Times New Roman;fontSize=18;" edge="1" parent="WIyWlLk6GJQsqaUBKTNV-1" source="FiQDS2GlnpHeSwT_CPR_-33" target="FiQDS2GlnpHeSwT_CPR_-45">
          <mxGeometry relative="1" as="geometry" />
        </mxCell>
        <mxCell id="FiQDS2GlnpHeSwT_CPR_-33" value="&lt;font style=&quot;font-size: 18px;&quot;&gt;登录&lt;/font&gt;" style="rounded=1;whiteSpace=wrap;html=1;fontFamily=Times New Roman;fontSize=16;" vertex="1" parent="WIyWlLk6GJQsqaUBKTNV-1">
          <mxGeometry x="340" y="220" width="70" height="40" as="geometry" />
        </mxCell>
        <mxCell id="FiQDS2GlnpHeSwT_CPR_-52" style="edgeStyle=orthogonalEdgeStyle;rounded=0;orthogonalLoop=1;jettySize=auto;html=1;entryX=0.5;entryY=0;entryDx=0;entryDy=0;fontFamily=Times New Roman;fontSize=18;" edge="1" parent="WIyWlLk6GJQsqaUBKTNV-1" source="FiQDS2GlnpHeSwT_CPR_-34" target="FiQDS2GlnpHeSwT_CPR_-49">
          <mxGeometry relative="1" as="geometry" />
        </mxCell>
        <mxCell id="FiQDS2GlnpHeSwT_CPR_-53" style="edgeStyle=orthogonalEdgeStyle;rounded=0;orthogonalLoop=1;jettySize=auto;html=1;entryX=0.5;entryY=0;entryDx=0;entryDy=0;fontFamily=Times New Roman;fontSize=18;" edge="1" parent="WIyWlLk6GJQsqaUBKTNV-1" source="FiQDS2GlnpHeSwT_CPR_-34" target="FiQDS2GlnpHeSwT_CPR_-50">
          <mxGeometry relative="1" as="geometry" />
        </mxCell>
        <mxCell id="FiQDS2GlnpHeSwT_CPR_-54" style="edgeStyle=orthogonalEdgeStyle;rounded=0;orthogonalLoop=1;jettySize=auto;html=1;entryX=0.5;entryY=0;entryDx=0;entryDy=0;fontFamily=Times New Roman;fontSize=18;exitX=0.5;exitY=1;exitDx=0;exitDy=0;" edge="1" parent="WIyWlLk6GJQsqaUBKTNV-1" source="FiQDS2GlnpHeSwT_CPR_-34" target="FiQDS2GlnpHeSwT_CPR_-51">
          <mxGeometry relative="1" as="geometry">
            <mxPoint x="519" y="270" as="sourcePoint" />
          </mxGeometry>
        </mxCell>
        <mxCell id="FiQDS2GlnpHeSwT_CPR_-34" value="&lt;font style=&quot;font-size: 18px;&quot;&gt;注册&lt;/font&gt;" style="rounded=1;whiteSpace=wrap;html=1;fontFamily=Times New Roman;fontSize=16;" vertex="1" parent="WIyWlLk6GJQsqaUBKTNV-1">
          <mxGeometry x="488" y="220" width="70" height="40" as="geometry" />
        </mxCell>
        <mxCell id="FiQDS2GlnpHeSwT_CPR_-41" value="&lt;font style=&quot;font-size: 14px;&quot;&gt;数据载入&lt;/font&gt;" style="rounded=1;whiteSpace=wrap;html=1;fontFamily=Times New Roman;fontSize=16;" vertex="1" parent="WIyWlLk6GJQsqaUBKTNV-1">
          <mxGeometry x="222.5" y="300" width="75" height="25" as="geometry" />
        </mxCell>
        <mxCell id="FiQDS2GlnpHeSwT_CPR_-45" value="&lt;span style=&quot;font-size: 14px;&quot;&gt;用户查找&lt;/span&gt;" style="rounded=1;whiteSpace=wrap;html=1;fontFamily=Times New Roman;fontSize=16;" vertex="1" parent="WIyWlLk6GJQsqaUBKTNV-1">
          <mxGeometry x="337" y="300" width="75" height="25" as="geometry" />
        </mxCell>
        <mxCell id="FiQDS2GlnpHeSwT_CPR_-49" value="&lt;span style=&quot;font-size: 14px;&quot;&gt;查找&lt;/span&gt;" style="rounded=1;whiteSpace=wrap;html=1;fontFamily=Times New Roman;fontSize=16;" vertex="1" parent="WIyWlLk6GJQsqaUBKTNV-1">
          <mxGeometry x="440" y="300" width="50" height="25" as="geometry" />
        </mxCell>
        <mxCell id="FiQDS2GlnpHeSwT_CPR_-50" value="&lt;span style=&quot;font-size: 14px;&quot;&gt;插入&lt;/span&gt;" style="rounded=1;whiteSpace=wrap;html=1;fontFamily=Times New Roman;fontSize=16;" vertex="1" parent="WIyWlLk6GJQsqaUBKTNV-1">
          <mxGeometry x="498" y="300" width="50" height="25" as="geometry" />
        </mxCell>
        <mxCell id="FiQDS2GlnpHeSwT_CPR_-51" value="&lt;span style=&quot;font-size: 14px;&quot;&gt;保存&lt;/span&gt;" style="rounded=1;whiteSpace=wrap;html=1;fontFamily=Times New Roman;fontSize=16;" vertex="1" parent="WIyWlLk6GJQsqaUBKTNV-1">
          <mxGeometry x="555" y="300" width="50" height="25" as="geometry" />
        </mxCell>
      </root>
    </mxGraphModel>
  </diagram>
</mxfile>
